<svg width="10" height="10" viewBox="0 0 10 10" fill="none" xmlns="http://www.w3.org/2000/svg">
<path d="M5 0C4.01109 0 3.0444 0.293245 2.22215 0.842652C1.3999 1.39206 0.759043 2.17295 0.380605 3.08658C0.00216643 4.00021 -0.0968502 5.00555 0.0960758 5.97545C0.289002 6.94536 0.765206 7.83627 1.46447 8.53553C2.16373 9.23479 3.05465 9.711 4.02455 9.90392C4.99445 10.0969 5.99979 9.99783 6.91342 9.6194C7.82705 9.24096 8.60794 8.6001 9.15735 7.77785C9.70675 6.9556 10 5.98891 10 5C9.99857 3.67436 9.47132 2.40342 8.53395 1.46605C7.59658 0.528678 6.32564 0.00143378 5 0ZM5 9.16667C4.17591 9.16667 3.37033 8.92229 2.68513 8.46445C1.99992 8.00662 1.46587 7.35587 1.1505 6.59451C0.835139 5.83315 0.752625 4.99538 0.913397 4.18712C1.07417 3.37887 1.471 2.63644 2.05372 2.05372C2.63644 1.471 3.37887 1.07417 4.18713 0.913395C4.99538 0.752623 5.83316 0.835137 6.59452 1.1505C7.35587 1.46587 8.00662 1.99992 8.46446 2.68512C8.9223 3.37033 9.16667 4.17591 9.16667 5C9.16545 6.1047 8.72608 7.1638 7.94494 7.94494C7.1638 8.72608 6.1047 9.16545 5 9.16667Z" fill="#7B94E4"/>
<path d="M4.99996 4.1665H4.58329C4.47279 4.1665 4.36681 4.2104 4.28866 4.28854C4.21052 4.36668 4.16663 4.47266 4.16663 4.58317C4.16663 4.69368 4.21052 4.79966 4.28866 4.8778C4.36681 4.95594 4.47279 4.99984 4.58329 4.99984H4.99996V7.49984C4.99996 7.61034 5.04386 7.71632 5.122 7.79446C5.20014 7.8726 5.30612 7.9165 5.41663 7.9165C5.52713 7.9165 5.63311 7.8726 5.71125 7.79446C5.78939 7.71632 5.83329 7.61034 5.83329 7.49984V4.99984C5.83329 4.77882 5.74549 4.56686 5.58921 4.41058C5.43293 4.2543 5.22097 4.1665 4.99996 4.1665Z" fill="#7B94E4"/>
<path d="M5 3.3335C5.34518 3.3335 5.625 3.05367 5.625 2.7085C5.625 2.36332 5.34518 2.0835 5 2.0835C4.65482 2.0835 4.375 2.36332 4.375 2.7085C4.375 3.05367 4.65482 3.3335 5 3.3335Z" fill="#7B94E4"/>
</svg>
