<svg width="6" height="13" viewBox="0 0 6 13" fill="none" xmlns="http://www.w3.org/2000/svg">
<g clip-path="url(#clip0_144_101)">
<path d="M1.95002 7.07679C1.87972 7.00125 1.82392 6.91139 1.78585 6.81238C1.74777 6.71337 1.72817 6.60717 1.72817 6.49991C1.72817 6.39265 1.74777 6.28645 1.78585 6.18744C1.82392 6.08843 1.87972 5.99857 1.95002 5.92304L5.39252 2.20179C5.46281 2.12625 5.51861 2.03639 5.55669 1.93738C5.59476 1.83837 5.61437 1.73217 5.61437 1.62491C5.61437 1.51765 5.59476 1.41145 5.55669 1.31244C5.51861 1.21343 5.46281 1.12357 5.39252 1.04804C5.252 0.896708 5.06191 0.811768 4.86377 0.811768C4.66563 0.811768 4.47554 0.896708 4.33502 1.04804L0.892517 4.77741C0.471165 5.23444 0.234497 5.85397 0.234497 6.49991C0.234497 7.14585 0.471165 7.76538 0.892517 8.22241L4.33502 11.9518C4.47471 12.1019 4.66326 12.1865 4.86002 12.1874C4.95872 12.188 5.05657 12.1675 5.14795 12.1271C5.23933 12.0867 5.32244 12.0271 5.39252 11.9518C5.46281 11.8763 5.51861 11.7864 5.55669 11.6874C5.59476 11.5884 5.61437 11.4822 5.61437 11.3749C5.61437 11.2677 5.59476 11.1615 5.55669 11.0624C5.51861 10.9634 5.46281 10.8736 5.39252 10.798L1.95002 7.07679Z" fill="#7B94E4"/>
</g>
<defs>
<clipPath id="clip0_144_101">
<rect width="6" height="13" fill="white"/>
</clipPath>
</defs>
</svg>
