<svg width="26" height="24" viewBox="0 0 26 24" fill="none" xmlns="http://www.w3.org/2000/svg">
<path d="M24.05 1.3433C23.441 0.834053 22.7273 0.465136 21.9597 0.262741C21.192 0.0603472 20.3893 0.0294395 19.6083 0.172213L15.4678 0.924046C14.5119 1.09959 13.6427 1.59141 13 2.32046C12.3556 1.59015 11.4839 1.09822 10.5257 0.924046L6.39167 0.172213C5.61075 0.0293145 4.80798 0.0598172 4.04016 0.261562C3.27234 0.463306 2.55825 0.83136 1.94845 1.33967C1.33864 1.84798 0.848018 2.48412 0.511314 3.20306C0.17461 3.922 5.28802e-05 4.70617 0 5.50005L0 17.1925C6.22438e-05 18.4608 0.445225 19.689 1.25789 20.6628C2.07056 21.6366 3.1992 22.2943 4.44708 22.5214L11.2569 23.7596C12.4095 23.9691 13.5905 23.9691 14.7431 23.7596L21.5583 22.5214C22.8052 22.2932 23.9326 21.635 24.7442 20.6613C25.5558 19.6876 26.0002 18.4601 26 17.1925V5.50005C26.0005 4.70644 25.826 3.92249 25.489 3.20402C25.1519 2.48555 24.6606 1.85023 24.05 1.3433ZM11.9167 21.672C11.8257 21.659 11.7347 21.6439 11.6437 21.6276L4.83492 20.3905C4.08608 20.2542 3.40881 19.8595 2.9212 19.275C2.43358 18.6906 2.16655 17.9536 2.16667 17.1925V5.50005C2.16667 4.63809 2.50908 3.81144 3.11857 3.20195C3.72806 2.59246 4.55471 2.25005 5.41667 2.25005C5.61285 2.25051 5.80861 2.26828 6.00167 2.30313L10.14 3.06146C10.6379 3.15257 11.0882 3.41514 11.4127 3.80359C11.7373 4.19205 11.9156 4.68187 11.9167 5.18805V21.672ZM23.8333 17.1925C23.8334 17.9536 23.5664 18.6906 23.0788 19.275C22.5912 19.8595 21.9139 20.2542 21.1651 20.3905L14.3563 21.6276C14.2653 21.6439 14.1743 21.659 14.0833 21.672V5.18805C14.0833 4.68063 14.2613 4.18927 14.5864 3.79966C14.9114 3.41004 15.3629 3.14687 15.8622 3.05605L20.0016 2.29771C20.4704 2.21242 20.9522 2.23125 21.4129 2.35287C21.8735 2.47448 22.3019 2.6959 22.6675 3.00145C23.0331 3.307 23.327 3.6892 23.5285 4.12099C23.73 4.55277 23.834 5.02357 23.8333 5.50005V17.1925Z" fill="#C3C3C3"/>
</svg>
