<svg width="10" height="10" viewBox="0 0 10 10" fill="none" xmlns="http://www.w3.org/2000/svg">
<path d="M6.66667 5C7.58583 5 8.33333 5.7475 8.33333 6.66667C8.33333 7.58583 7.58583 8.33333 6.66667 8.33333C5.7475 8.33333 5 7.58583 5 6.66667C5 5.7475 5.7475 5 6.66667 5ZM8.09542 3.65458C7.88875 3.55542 7.63875 3.64458 7.54042 3.85208C7.44167 4.06 7.53042 4.30875 7.73833 4.4075C8.60625 4.81958 9.16708 5.70667 9.16708 6.66708C9.16708 8.04583 8.04583 9.16708 6.66708 9.16708H3.33333C1.95458 9.16708 0.833333 8.04583 0.833333 6.66708C0.833333 5.70667 1.39417 4.81958 2.26208 4.4075C2.47 4.30875 2.55833 4.06042 2.45958 3.85208C2.36083 3.64417 2.11208 3.55542 1.90417 3.65458C0.7475 4.20375 0 5.38625 0 6.66667C0 8.50458 1.49542 10 3.33333 10H6.66667C8.50458 10 10 8.50458 10 6.66667C10 5.38625 9.2525 4.20375 8.09542 3.65458ZM2.91667 2.08333C2.91667 0.932917 3.84958 0 5 0C6.15042 0 7.08333 0.932917 7.08333 2.08333C7.08333 3.23375 6.15042 4.16667 5 4.16667C3.84958 4.16667 2.91667 3.23375 2.91667 2.08333ZM3.77 2.15542C3.80542 2.78375 4.31708 3.29458 4.94542 3.33125C5.1075 3.34083 5.26208 3.31833 5.40542 3.27042C5.555 3.22042 5.555 3.01167 5.40792 2.95583C5.25458 2.8975 5.11333 2.79708 5.0025 2.65292C4.74625 2.32 4.74625 1.84667 5.0025 1.51417C5.11333 1.37 5.25458 1.26958 5.40792 1.21125C5.55667 1.15458 5.55333 0.945417 5.4025 0.895417C5.28167 0.855417 5.15292 0.83375 5.01833 0.83375C4.30417 0.83375 3.72958 1.43292 3.77042 2.15583L3.77 2.15542Z" fill="#7B94E4"/>
</svg>
