<svg width="14" height="14" viewBox="0 0 14 14" fill="none" xmlns="http://www.w3.org/2000/svg">
<g clip-path="url(#clip0_144_660)">
<path d="M11.0833 0.583496H2.91667C2.1434 0.584422 1.40208 0.892011 0.855295 1.43879C0.308514 1.98557 0.00092625 2.7269 0 3.50016L0 10.5002C0.00092625 11.2734 0.308514 12.0148 0.855295 12.5615C1.40208 13.1083 2.1434 13.4159 2.91667 13.4168H11.0833C11.8566 13.4159 12.5979 13.1083 13.1447 12.5615C13.6915 12.0148 13.9991 11.2734 14 10.5002V3.50016C13.9991 2.7269 13.6915 1.98557 13.1447 1.43879C12.5979 0.892011 11.8566 0.584422 11.0833 0.583496ZM2.91667 1.75016H11.0833C11.4326 1.75085 11.7737 1.85605 12.0627 2.05221C12.3517 2.24838 12.5754 2.52655 12.705 2.85091L8.23783 7.31866C7.90908 7.6461 7.46399 7.82994 7 7.82994C6.53601 7.82994 6.09092 7.6461 5.76217 7.31866L1.295 2.85091C1.42459 2.52655 1.64827 2.24838 1.93728 2.05221C2.22628 1.85605 2.56738 1.75085 2.91667 1.75016ZM11.0833 12.2502H2.91667C2.45254 12.2502 2.00742 12.0658 1.67923 11.7376C1.35104 11.4094 1.16667 10.9643 1.16667 10.5002V4.37516L4.93733 8.1435C5.48487 8.68964 6.22665 8.99635 7 8.99635C7.77335 8.99635 8.51513 8.68964 9.06267 8.1435L12.8333 4.37516V10.5002C12.8333 10.9643 12.649 11.4094 12.3208 11.7376C11.9926 12.0658 11.5475 12.2502 11.0833 12.2502Z" fill="#7B94E4"/>
</g>
<defs>
<clipPath id="clip0_144_660">
<rect width="14" height="14" fill="white"/>
</clipPath>
</defs>
</svg>
