<svg width="16" height="10" viewBox="0 0 16 10" fill="none" xmlns="http://www.w3.org/2000/svg">
<path d="M12.6667 0H3.33333C1.49267 0 0 1.39875 0 3.125V6.875C0 8.60063 1.49267 10 3.33333 10H12.6667C14.5047 10 16 8.59813 16 6.875V3.125C16 1.40188 14.5047 0 12.6667 0ZM5.41333 7.5C5.196 7.5 5.00733 7.35938 4.95867 7.16062L4.782 6.4375H3.176L2.99333 7.16313C2.94333 7.36063 2.756 7.5 2.53933 7.5C2.23867 7.5 2.01667 7.23688 2.08533 6.9625L3.02733 3.21688C3.16133 2.67563 3.78533 2.33813 4.398 2.57875C4.69067 2.69375 4.88733 2.9575 4.95933 3.2475L5.868 6.965C5.93467 7.23875 5.71333 7.5 5.41333 7.5ZM14.6667 6.875C14.6667 7.90875 13.7693 8.75 12.6667 8.75H8V1.25H12.6667C13.7693 1.25 14.6667 2.09125 14.6667 3.125V6.875ZM13.6667 3.51V3.52313C13.6667 3.73563 13.4827 3.90813 13.256 3.90813H13.0453C12.9647 4.705 12.634 5.615 11.974 6.32438C12.3353 6.53 12.7687 6.67688 13.2967 6.72375C13.5067 6.7425 13.6667 6.90875 13.6667 7.10688V7.12C13.6667 7.34875 13.456 7.525 13.2133 7.50312C12.4553 7.435 11.8407 7.1975 11.3413 6.86438C10.8393 7.20062 10.2173 7.43625 9.45333 7.50312C9.21067 7.52437 9.00067 7.34812 9.00067 7.11937V7.10625C9.00067 6.90562 9.166 6.74125 9.37933 6.7225C9.90467 6.67562 10.338 6.53063 10.6973 6.32563C10.4767 6.08875 10.2927 5.82938 10.142 5.55875C10 5.30375 10.2013 4.99875 10.508 4.99875H10.5147C10.6653 4.99875 10.806 5.075 10.8753 5.2C10.9987 5.42 11.1527 5.63187 11.3373 5.82625C11.8827 5.25125 12.132 4.50875 12.206 3.90688H9.412C9.18533 3.90688 9.00133 3.73438 9.00133 3.52188V3.50875C9.00133 3.29625 9.18533 3.12375 9.412 3.12375H10.9167V2.88375C10.9167 2.67125 11.1007 2.49875 11.3273 2.49875H11.3413C11.568 2.49875 11.752 2.67125 11.752 2.88375V3.12375H13.2567C13.4833 3.12375 13.6673 3.29625 13.6673 3.50875L13.6667 3.51ZM4.04333 3.41438L4.568 5.5625H3.39667L3.93733 3.41438C3.94333 3.39125 3.96467 3.375 3.99 3.375C4.01533 3.375 4.038 3.39125 4.04333 3.41438Z" fill="#7B94E4"/>
</svg>
