<svg width="9" height="9" viewBox="0 0 9 9" fill="none" xmlns="http://www.w3.org/2000/svg">
<path d="M8.54947 3.43476L7.09679 1.98208C7.02616 1.91386 6.93156 1.87611 6.83336 1.87697C6.73517 1.87782 6.64124 1.91721 6.57181 1.98664C6.50237 2.05608 6.46299 2.15001 6.46213 2.2482C6.46128 2.34639 6.49903 2.44099 6.56725 2.51162L8.01993 3.9643C8.06309 4.00832 8.1008 4.05735 8.13228 4.11036C8.12666 4.11036 8.12216 4.10736 8.11655 4.10736L2.24291 4.11934C2.14358 4.11934 2.04833 4.1588 1.9781 4.22903C1.90786 4.29926 1.86841 4.39452 1.86841 4.49384C1.86841 4.59317 1.90786 4.68842 1.9781 4.75865C2.04833 4.82889 2.14358 4.86834 2.24291 4.86834L8.1143 4.85636C8.12479 4.85636 8.1334 4.85111 8.14351 4.85037C8.11029 4.91372 8.06817 4.97198 8.01843 5.02338L6.56575 6.47606C6.52998 6.51061 6.50145 6.55194 6.48182 6.59763C6.46219 6.64332 6.45186 6.69246 6.45143 6.74218C6.451 6.79191 6.46047 6.84122 6.4793 6.88725C6.49813 6.93327 6.52594 6.97509 6.56111 7.01025C6.59627 7.04541 6.63808 7.07322 6.68411 7.09205C6.73013 7.11088 6.77944 7.12035 6.82917 7.11992C6.8789 7.11949 6.92804 7.10916 6.97373 7.08953C7.01942 7.0699 7.06074 7.04137 7.09529 7.00561L8.54797 5.55293C8.8288 5.27201 8.98656 4.89106 8.98656 4.49384C8.98656 4.09663 8.8288 3.71568 8.54797 3.43476H8.54947Z" fill="#7B94E4"/>
<path d="M2.62149 8.23897H1.87249C1.57452 8.23897 1.28876 8.12061 1.07806 7.90991C0.867366 7.69921 0.748998 7.41345 0.748998 7.11548V1.87249C0.748998 1.57452 0.867366 1.28876 1.07806 1.07806C1.28876 0.867366 1.57452 0.748998 1.87249 0.748998H2.62149C2.72081 0.748998 2.81607 0.709542 2.8863 0.639309C2.95653 0.569077 2.99599 0.473822 2.99599 0.374499C2.99599 0.275176 2.95653 0.17992 2.8863 0.109688C2.81607 0.039456 2.72081 0 2.62149 0L1.87249 0C1.37606 0.000594651 0.900129 0.198066 0.549098 0.549098C0.198066 0.90013 0.000594651 1.37606 0 1.87249L0 7.11548C0.000594651 7.61191 0.198066 8.08784 0.549098 8.43887C0.900129 8.78991 1.37606 8.98738 1.87249 8.98797H2.62149C2.72081 8.98797 2.81607 8.94852 2.8863 8.87828C2.95653 8.80805 2.99599 8.7128 2.99599 8.61347C2.99599 8.51415 2.95653 8.41889 2.8863 8.34866C2.81607 8.27843 2.72081 8.23897 2.62149 8.23897Z" fill="#7B94E4"/>
</svg>
