<svg width="7" height="13" viewBox="0 0 7 13" fill="none" xmlns="http://www.w3.org/2000/svg">
<g clip-path="url(#clip0_144_689)">
<path d="M4.725 7.07703C4.80701 7.0015 4.87211 6.91163 4.91653 6.81262C4.96095 6.71361 4.98382 6.60741 4.98382 6.50015C4.98382 6.3929 4.96095 6.2867 4.91653 6.18769C4.87211 6.08868 4.80701 5.99881 4.725 5.92328L0.70875 2.20203C0.626737 2.1265 0.561642 2.03663 0.517219 1.93762C0.472796 1.83861 0.449926 1.73242 0.449926 1.62516C0.449926 1.5179 0.472796 1.4117 0.517219 1.31269C0.561642 1.21368 0.626737 1.12381 0.70875 1.04828C0.872692 0.896952 1.09446 0.812012 1.32562 0.812012C1.55679 0.812012 1.77856 0.896952 1.9425 1.04828L5.95875 4.77766C6.45033 5.23469 6.72644 5.85422 6.72644 6.50015C6.72644 7.14609 6.45033 7.76562 5.95875 8.22265L1.9425 11.952C1.77952 12.1021 1.55955 12.1868 1.33 12.1877C1.21484 12.1883 1.10069 12.1678 0.994081 12.1273C0.887473 12.0869 0.79051 12.0273 0.70875 11.952C0.626737 11.8765 0.561642 11.7866 0.517219 11.6876C0.472796 11.5886 0.449926 11.4824 0.449926 11.3752C0.449926 11.2679 0.472796 11.1617 0.517219 11.0627C0.561642 10.9637 0.626737 10.8738 0.70875 10.7983L4.725 7.07703Z" fill="#7B94E4"/>
</g>
<defs>
<clipPath id="clip0_144_689">
<rect width="7" height="13" fill="white" transform="matrix(-1 0 0 1 7 0)"/>
</clipPath>
</defs>
</svg>
